<svg width="137" height="35" viewBox="0 0 137 35" fill="none" xmlns="http://www.w3.org/2000/svg">
<path fill-rule="evenodd" clip-rule="evenodd" d="M31.8266 0.00289571C31.9676 -0.0109582 32.1089 0.0251932 32.2258 0.105023C31.8173 5.20211 28.67 7.74601 22.9415 7.35607V29.9634C27.0823 28.9885 29.6819 26.3239 31.6224 23.093L32.1052 23.2879C30.7961 28.6079 27.9551 32.5815 23.0344 34.1784C20.1545 35.0124 17.1155 35.1367 14.1771 34.5405C11.7097 34.0407 9.39635 32.962 7.42745 31.3932C5.92807 30.1918 4.70443 28.6822 3.83943 26.9666C2.97443 25.251 2.48828 23.3695 2.41392 21.4497C2.31423 19.9232 2.43936 18.3904 2.78529 16.9003C3.37373 14.4579 4.51037 12.1815 6.10908 10.2435C7.60406 8.43535 9.32666 6.82821 11.234 5.46207C8.95506 4.93683 6.56803 5.15147 4.41933 6.07484C2.95627 6.88913 1.72088 8.05749 0.826304 9.47289C0.714892 9.64001 0.519921 10.0021 0.399225 10.03C0.266839 10.047 0.133035 10.0501 0 10.0392C0.133362 8.56467 0.573009 7.13417 1.29082 5.83923C2.00863 4.54429 2.98881 3.41342 4.16866 2.51894C6.93655 0.716084 10.2439 -0.0713769 13.5272 0.290709C17.9837 0.578523 21.6974 1.92475 25.8661 2.53751C26.7476 2.70296 27.6491 2.73426 28.54 2.63036C30.2297 2.37039 31.0375 1.3027 31.7895 0.0493173C31.8081 0.040033 31.7988 0.00289571 31.8266 0.00289571ZM7.55743 15.9069C7.13035 21.0968 8.94079 24.6342 11.5961 26.9367C12.1137 26.4918 12.534 25.945 12.8309 25.3305C13.1194 24.5372 13.2488 23.6949 13.2116 22.8516V5.76845C13.0023 5.75183 12.7945 5.72081 12.5895 5.67561C9.68631 8.33271 7.8898 11.9854 7.55743 15.9069ZM18.4201 6.67832V13.3445C18.53 15.513 18.4585 17.6869 18.2065 19.8435C17.5195 23.65 15.0963 25.6647 12.7381 27.763C14.7156 29.5363 17.8166 30.4647 21.6696 30.1769V7.25394C20.5833 7.04969 19.5342 6.8083 18.4386 6.61333C18.4294 6.60404 18.4108 6.64118 18.4201 6.67832Z" fill="white"/>
<path fill-rule="evenodd" clip-rule="evenodd" d="M36.8773 1.49774C37.2781 1.45661 37.6809 1.55393 38.0188 1.77352C38.3566 1.9931 38.609 2.32171 38.7342 2.7047C39.3005 4.19019 38.9291 6.57626 37.6851 7.10547C37.2535 7.27557 36.7786 7.30242 36.3306 7.18205C35.8826 7.06169 35.4851 6.80049 35.1969 6.437C34.8448 5.84308 34.6768 5.15812 34.7141 4.46872C34.7141 2.8254 35.1504 1.49774 36.8773 1.49774Z" fill="white"/>
<path fill-rule="evenodd" clip-rule="evenodd" d="M44.7411 10.3177C45.0526 9.57711 45.5597 8.93524 46.2081 8.46081C46.5383 8.30017 46.9067 8.23423 47.2721 8.27028C47.6376 8.30634 47.986 8.44299 48.2785 8.66506C48.7672 9.07325 49.1468 9.59647 49.3833 10.1877C50.4429 13.1451 50.6362 16.3435 49.9404 19.407C49.841 20.0551 49.6103 20.676 49.2622 21.2316C48.9141 21.7872 48.4562 22.2658 47.9164 22.6379C47.5422 22.8188 47.1227 22.8845 46.7111 22.8267C46.2995 22.7688 45.9144 22.59 45.6046 22.313C45.084 21.7285 44.7255 21.0179 44.5647 20.2519V22.8608C43.0949 22.6364 41.613 22.5 40.1268 22.4523V21.7838H40.9531V2.92736H40.1083V2.27745C41.6029 2.22178 43.0918 2.06358 44.5647 1.80396C44.7226 1.80396 44.704 1.80395 44.7133 1.98036C44.7969 3.3173 44.7133 4.70066 44.7133 6.01903L44.7411 10.3177ZM44.7411 12.518V18.8128C44.7566 19.2974 44.8188 19.7793 44.9268 20.2519C45.0197 20.6511 45.2239 21.1803 45.6232 21.1803C46.0224 21.1803 46.0781 20.5675 46.1338 20.1498C46.2544 18.6364 46.2823 17.1172 46.2174 15.6004V12.4623C46.2283 11.9632 46.2066 11.4639 46.1524 10.9676C46.0688 10.4291 45.9574 9.94629 45.521 10.0391C44.8154 10.197 44.7969 11.7103 44.7597 12.518H44.7411Z" fill="white"/>
<path fill-rule="evenodd" clip-rule="evenodd" d="M119.072 7.98732C119.118 9.67706 119.155 11.4689 119.164 13.1308H118.839C118.54 11.7001 117.867 10.3741 116.89 9.28712C116.379 8.83219 115.209 8.35869 114.847 9.22213C114.7 9.58587 114.663 9.98467 114.741 10.3692C114.819 10.7537 115.007 11.107 115.284 11.3854C115.478 11.5525 115.738 11.6825 115.952 11.831C116.646 12.2551 117.302 12.7398 117.911 13.2794C118.698 14.0875 119.225 15.1125 119.424 16.2225C119.657 17.573 119.638 18.9547 119.369 20.2983C119.301 20.8634 119.087 21.4012 118.749 21.8586C118.41 22.3161 117.958 22.6775 117.437 22.9072C117.121 23.0213 116.789 23.0901 116.453 23.1115C116.027 23.0807 115.618 22.9293 115.274 22.6751C114.931 22.4708 114.615 22.2944 114.29 22.0623C113.956 22.2944 113.622 22.573 113.278 22.8515C113.184 22.9615 113.062 23.0438 112.924 23.0896C112.787 23.1354 112.64 23.1429 112.498 23.1115C112.498 21.2546 112.396 19.3977 112.405 17.5409H112.665C112.86 18.0886 113.009 18.6364 113.222 19.1471C113.602 20.1266 114.214 20.9995 115.005 21.691C115.209 21.858 115.434 21.9984 115.673 22.1088C115.94 22.2488 116.236 22.3221 116.537 22.3223C116.794 22.2885 117.029 22.1625 117.2 21.9678C117.371 21.7731 117.465 21.5229 117.465 21.2639C117.586 19.9734 116.843 19.5184 116.082 18.9892C115.553 18.6179 115.014 18.2093 114.476 17.8287C114.29 17.7173 114.114 17.5966 113.937 17.4666C113.556 17.1107 113.241 16.6894 113.009 16.2225C112.303 14.4984 112.183 12.5904 112.665 10.7912C112.756 10.272 112.952 9.77684 113.241 9.33615C113.53 8.89547 113.906 8.51859 114.346 8.22871C114.894 8.02471 115.495 8.00839 116.054 8.18229C116.549 8.34913 117.015 8.59018 117.437 8.89718C117.865 8.60937 118.264 8.2937 118.682 7.96875L119.072 7.98732Z" fill="white"/>
<path fill-rule="evenodd" clip-rule="evenodd" d="M85.267 21.9045H86.1304V22.5823H80.9312V21.9231H81.479V12.7038C81.5069 12.1997 81.5069 11.6945 81.479 11.1904C81.479 10.7448 81.3212 10.197 80.9591 10.1692C80.597 10.1413 80.337 10.6798 80.2349 11.0419C80.1156 11.4824 80.0378 11.9331 80.0028 12.3881C79.9192 13.4001 80.0028 14.5421 80.0028 15.5448V21.9045H80.5784V22.5823H75.3049V21.9231H76.1312V9.15718H75.3421V8.40515C76.9575 8.40515 78.3595 8.11734 79.9842 8.09877C79.9842 8.98078 79.9842 9.95563 79.9842 10.8376C80.4763 9.65853 81.0705 8.16376 82.5467 8.05235C84.4036 7.9038 84.9513 9.5007 85.1649 11.0976C85.2779 12.2669 85.3213 13.4419 85.2949 14.6164L85.267 21.9045Z" fill="white"/>
<path d="M35.4503 28.8666L34.3256 25.659H34.3066C34.3447 26.1335 34.3447 26.5891 34.3447 27.0066V28.8666H33.7728V25.0327H34.6687L35.7362 28.0885H35.7552L36.8608 25.0327H37.7567V28.8666H37.1468V26.9687C37.1468 26.7789 37.1468 26.5321 37.1658 26.2284C37.1849 25.9248 37.1849 25.735 37.1849 25.678H37.1658L36.0031 28.8856H35.4503V28.8666Z" fill="white"/>
<path d="M40.5212 28.8662L40.4068 28.4676H40.3877C40.2543 28.6384 40.1018 28.7713 39.9684 28.8282C39.8349 28.8852 39.6443 28.9231 39.4156 28.9231C39.1296 28.9231 38.9009 28.8472 38.7484 28.6954C38.5959 28.5435 38.5006 28.3158 38.5006 28.0501C38.5006 27.7464 38.615 27.5186 38.8437 27.3668C39.0725 27.2149 39.4156 27.139 39.8731 27.12L40.3687 27.1011V26.9492C40.3687 26.7594 40.3305 26.6266 40.2352 26.5317C40.1399 26.4368 40.0065 26.3988 39.8349 26.3988C39.6824 26.3988 39.549 26.4178 39.3965 26.4557C39.2631 26.4937 39.1296 26.5506 38.9962 26.6076L38.7865 26.1711C38.939 26.0951 39.1106 26.0192 39.3012 25.9813C39.4918 25.9433 39.6634 25.9243 39.8349 25.9243C40.1971 25.9243 40.483 26.0002 40.6736 26.1711C40.8643 26.3229 40.9596 26.5886 40.9596 26.9302V28.8852H40.5212V28.8662ZM39.6062 28.4486C39.8349 28.4486 40.0065 28.3917 40.1399 28.2588C40.2733 28.126 40.3496 27.9552 40.3496 27.7274V27.4807L39.9684 27.4996C39.6824 27.5186 39.4728 27.5566 39.3393 27.6515C39.2059 27.7464 39.1487 27.8792 39.1487 28.0501C39.1487 28.1829 39.1868 28.2778 39.2631 28.3537C39.3203 28.4107 39.4346 28.4486 39.6062 28.4486Z" fill="white"/>
<path d="M42.923 28.4106C43.0755 28.4106 43.228 28.3916 43.3805 28.3347V28.7902C43.3043 28.8282 43.228 28.8471 43.1137 28.8661C42.9993 28.8851 42.8849 28.9041 42.7705 28.9041C42.1796 28.9041 41.8937 28.6004 41.8937 27.9741V26.4177H41.4934V26.152L41.9128 25.9243L42.1224 25.3169H42.5037V25.9622H43.3424V26.4367H42.5037V27.993C42.5037 28.1449 42.5418 28.2588 42.618 28.3157C42.6943 28.3726 42.7896 28.4106 42.923 28.4106Z" fill="white"/>
<path d="M45.7826 28.8662L45.6683 28.4676H45.6492C45.5158 28.6384 45.3633 28.7713 45.2298 28.8282C45.0964 28.8852 44.9058 28.9231 44.6771 28.9231C44.3911 28.9231 44.1624 28.8472 44.0099 28.6954C43.8574 28.5435 43.7621 28.3158 43.7621 28.0501C43.7621 27.7464 43.8765 27.5186 44.1052 27.3668C44.3339 27.2149 44.6771 27.139 45.1345 27.12L45.6301 27.1011V26.9492C45.6301 26.7594 45.592 26.6266 45.4967 26.5317C45.4014 26.4368 45.268 26.3988 45.0964 26.3988C44.9439 26.3988 44.8105 26.4178 44.658 26.4557C44.5246 26.4937 44.3911 26.5506 44.2577 26.6076L44.048 26.1711C44.2005 26.0951 44.3721 26.0192 44.5627 25.9813C44.7533 25.9433 44.9249 25.9243 45.0964 25.9243C45.4586 25.9243 45.7445 26.0002 45.9351 26.1711C46.1257 26.3229 46.221 26.5886 46.221 26.9302V28.8852H45.7826V28.8662ZM44.8486 28.4486C45.0773 28.4486 45.2489 28.3917 45.3823 28.2588C45.5158 28.126 45.592 27.9552 45.592 27.7274V27.4807L45.2108 27.4996C44.9249 27.5186 44.7152 27.5566 44.5817 27.6515C44.4483 27.7464 44.3911 27.8792 44.3911 28.0501C44.3911 28.1829 44.4292 28.2778 44.5055 28.3537C44.5817 28.4107 44.6961 28.4486 44.8486 28.4486Z" fill="white"/>
<path d="M48.5463 28.8661V25.0322H49.1753V28.3347H50.8146V28.8661H48.5463Z" fill="white"/>
<path d="M53.9983 27.4046C53.9983 27.8791 53.884 28.2397 53.6362 28.5054C53.3884 28.7712 53.0452 28.904 52.6068 28.904C52.34 28.904 52.0922 28.8471 51.8825 28.7142C51.6728 28.6003 51.5203 28.4105 51.4059 28.1828C51.2916 27.955 51.2344 27.6893 51.2344 27.3856C51.2344 26.9111 51.3487 26.5505 51.5965 26.2848C51.8444 26.0191 52.1875 25.8862 52.6259 25.8862C53.0452 25.8862 53.3884 26.0191 53.6362 26.2848C53.884 26.5505 53.9983 26.9491 53.9983 27.4046ZM51.8825 27.4046C51.8825 28.0689 52.1303 28.4105 52.6259 28.4105C53.1215 28.4105 53.3693 28.0689 53.3693 27.4046C53.3693 26.7403 53.1215 26.4177 52.6259 26.4177C52.359 26.4177 52.1684 26.5126 52.054 26.6834C51.9397 26.8542 51.8825 27.082 51.8825 27.4046Z" fill="white"/>
<path d="M55.3142 27.3289L55.6573 26.8924L56.5342 25.9624H57.2395L56.0576 27.2151L57.2966 28.8663H56.5723L55.6383 27.5946L55.2952 27.8793V28.8663H54.6852V24.7856H55.2952V26.7785L55.3142 27.3289Z" fill="white"/>
<path d="M59.6214 28.8662L59.5071 28.4676H59.488C59.3546 28.6384 59.2021 28.7713 59.0687 28.8282C58.9352 28.8852 58.7446 28.9231 58.5159 28.9231C58.2299 28.9231 58.0012 28.8472 57.8487 28.6954C57.6962 28.5435 57.6009 28.3158 57.6009 28.0501C57.6009 27.7464 57.7153 27.5186 57.944 27.3668C58.1727 27.2149 58.5159 27.139 58.9733 27.12L59.469 27.1011V26.9492C59.469 26.7594 59.4308 26.6266 59.3355 26.5317C59.2402 26.4368 59.1068 26.3988 58.9352 26.3988C58.7827 26.3988 58.6493 26.4178 58.4968 26.4557C58.3634 26.4937 58.2299 26.5506 58.0965 26.6076L57.8868 26.1711C58.0393 26.0951 58.2109 26.0192 58.4015 25.9813C58.5921 25.9433 58.7637 25.9243 58.9352 25.9243C59.2974 25.9243 59.5833 26.0002 59.7739 26.1711C59.9646 26.3229 60.0599 26.5886 60.0599 26.9302V28.8852H59.6214V28.8662ZM58.7065 28.4486C58.9352 28.4486 59.1068 28.3917 59.2402 28.2588C59.3736 28.126 59.4499 27.9552 59.4499 27.7274V27.4807L59.0687 27.4996C58.7827 27.5186 58.573 27.5566 58.4396 27.6515C58.3062 27.7464 58.249 27.8792 58.249 28.0501C58.249 28.1829 58.2871 28.2778 58.3634 28.3537C58.4206 28.4107 58.5349 28.4486 58.7065 28.4486Z" fill="white"/>
<path d="M61.5461 28.8663H60.9361V24.7856H61.5461V28.8663Z" fill="white"/>
<path d="M65.5693 28.8662L64.4446 25.6586H64.4256C64.4637 26.1331 64.4637 26.5886 64.4637 27.0061V28.8662H63.8918V25.0322H64.7877L65.8552 28.088H65.8743L66.9798 25.0322H67.8757V28.8662H67.2658V26.9682C67.2658 26.7784 67.2658 26.5316 67.2848 26.228C67.3039 25.9243 67.3039 25.7345 67.3039 25.6775H67.2848L66.1221 28.8851H65.5693V28.8662Z" fill="white"/>
<path d="M70.0861 28.9231C69.6287 28.9231 69.2856 28.7903 69.0187 28.5245C68.7709 28.2588 68.6375 27.8982 68.6375 27.4427C68.6375 26.9682 68.7518 26.5886 68.9996 26.3229C69.2284 26.0572 69.5715 25.9243 69.9718 25.9243C70.353 25.9243 70.658 26.0382 70.8867 26.266C71.1155 26.4937 71.2299 26.8164 71.2299 27.2339V27.5756H69.2855C69.2855 27.8603 69.3618 28.069 69.5143 28.2209C69.6668 28.3727 69.8574 28.4486 70.1243 28.4486C70.2958 28.4486 70.4483 28.4297 70.6008 28.3917C70.7533 28.3537 70.9058 28.2968 71.0774 28.2209V28.7143C70.9249 28.7903 70.7724 28.8282 70.6199 28.8662C70.4674 28.9041 70.2958 28.9231 70.0861 28.9231ZM69.9718 26.3798C69.7812 26.3798 69.6096 26.4368 69.4952 26.5696C69.3809 26.7025 69.3046 26.8733 69.2855 27.12H70.6008C70.6008 26.8733 70.5436 26.7025 70.4293 26.5696C70.3339 26.4368 70.1815 26.3798 69.9718 26.3798Z" fill="white"/>
<path d="M74.4904 28.8661H73.8614V27.082C73.8614 26.8543 73.8232 26.6834 73.7279 26.5885C73.6326 26.4747 73.4992 26.4177 73.2895 26.4177C73.0226 26.4177 72.832 26.4936 72.7176 26.6455C72.6033 26.7973 72.527 27.063 72.527 27.4237V28.8661H71.9171V25.9622H72.3936L72.4889 26.3418H72.527C72.6223 26.209 72.7367 26.0951 72.9083 26.0192C73.0608 25.9432 73.2514 25.9053 73.442 25.9053C74.1473 25.9053 74.4904 26.2659 74.4904 26.9681V28.8661Z" fill="white"/>
<path d="M75.0612 30.1566C74.8706 30.1566 74.7181 30.1377 74.6037 30.0997V29.6062C74.7181 29.6442 74.8515 29.6442 74.9659 29.6442C75.2327 29.6442 75.3662 29.4923 75.3662 29.1887V25.9431H75.9762V29.2266C75.9762 29.5303 75.8999 29.7581 75.7474 29.9099C75.5759 30.0807 75.3471 30.1566 75.0612 30.1566ZM75.3281 25.1839C75.3281 25.07 75.3662 24.9941 75.4234 24.9372C75.4805 24.8802 75.5759 24.8423 75.6902 24.8423C75.8046 24.8423 75.8809 24.8802 75.938 24.9372C75.9952 24.9941 76.0333 25.089 76.0333 25.1839C76.0333 25.2978 75.9952 25.3737 75.938 25.4307C75.8809 25.4876 75.7855 25.5256 75.6902 25.5256C75.5759 25.5256 75.4996 25.4876 75.4234 25.4307C75.3471 25.3737 75.3281 25.2978 75.3281 25.1839Z" fill="white"/>
<path d="M78.6817 28.8662L78.5673 28.4676H78.5482C78.4148 28.6384 78.2623 28.7713 78.1289 28.8282C77.9955 28.8852 77.8048 28.9231 77.5761 28.9231C77.2902 28.9231 77.0614 28.8472 76.9089 28.6954C76.7564 28.5435 76.6611 28.3158 76.6611 28.0501C76.6611 27.7464 76.7755 27.5186 77.0042 27.3668C77.233 27.2149 77.5761 27.139 78.0336 27.12L78.5292 27.1011V26.9492C78.5292 26.7594 78.4911 26.6266 78.3958 26.5317C78.3004 26.4368 78.167 26.3988 77.9955 26.3988C77.843 26.3988 77.7095 26.4178 77.557 26.4557C77.4236 26.4937 77.2902 26.5506 77.1567 26.6076L76.9471 26.1711C77.0996 26.0951 77.2711 26.0192 77.4617 25.9813C77.6523 25.9433 77.8239 25.9243 77.9955 25.9243C78.3576 25.9243 78.6436 26.0002 78.8342 26.1711C79.0248 26.3229 79.1201 26.5886 79.1201 26.9302V28.8852H78.6817V28.8662ZM77.7667 28.4486C77.9955 28.4486 78.167 28.3917 78.3004 28.2588C78.4339 28.126 78.5101 27.9552 78.5101 27.7274V27.4807L78.1289 27.4996C77.843 27.5186 77.6333 27.5566 77.4999 27.6515C77.3664 27.7464 77.3092 27.8792 77.3092 28.0501C77.3092 28.1829 77.3474 28.2778 77.4236 28.3537C77.4999 28.4107 77.6142 28.4486 77.7667 28.4486Z" fill="white"/>
<path d="M82.5526 28.8661H81.9236V27.082C81.9236 26.8543 81.8855 26.6834 81.7902 26.5885C81.6949 26.4747 81.5614 26.4177 81.3517 26.4177C81.0849 26.4177 80.8943 26.4936 80.7799 26.6455C80.6655 26.7973 80.5893 27.063 80.5893 27.4237V28.8661H79.9793V25.9622H80.4558L80.5512 26.3418H80.5893C80.6846 26.209 80.799 26.0951 80.9705 26.0192C81.123 25.9432 81.3136 25.9053 81.5042 25.9053C82.2095 25.9053 82.5526 26.2659 82.5526 26.9681V28.8661Z" fill="white"/>
<path d="M85.8879 25.9622V26.3038L85.3923 26.3987C85.4304 26.4556 85.4685 26.5315 85.5066 26.6264C85.5448 26.7213 85.5448 26.8162 85.5448 26.9111C85.5448 27.2148 85.4495 27.4426 85.2398 27.6134C85.0301 27.7842 84.7442 27.8791 84.382 27.8791C84.2867 27.8791 84.2104 27.8791 84.1342 27.8601C84.0008 27.9361 83.9245 28.031 83.9245 28.1448C83.9245 28.2207 83.9626 28.2587 84.0198 28.2967C84.077 28.3346 84.1914 28.3536 84.3629 28.3536H84.8776C85.2017 28.3536 85.4495 28.4295 85.602 28.5624C85.7735 28.6952 85.8498 28.904 85.8498 29.1508C85.8498 29.4734 85.7163 29.7391 85.4495 29.91C85.1826 30.0808 84.7823 30.1757 84.2676 30.1757C83.8673 30.1757 83.5623 30.0997 83.3527 29.9669C83.143 29.834 83.0477 29.6253 83.0477 29.3595C83.0477 29.1887 83.1049 29.0369 83.2192 28.904C83.3336 28.7901 83.4861 28.6952 83.6958 28.6573C83.6195 28.6193 83.5433 28.5624 83.4861 28.4865C83.4289 28.4105 83.4098 28.3346 83.4098 28.2397C83.4098 28.1258 83.448 28.031 83.5052 27.955C83.5623 27.8791 83.6576 27.8032 83.772 27.7273C83.6195 27.6703 83.5052 27.5565 83.4098 27.4046C83.3145 27.2528 83.2764 27.082 83.2764 26.8922C83.2764 26.5695 83.3717 26.3417 83.5814 26.1519C83.772 25.9811 84.0579 25.8862 84.4392 25.8862C84.5154 25.8862 84.6107 25.8862 84.7061 25.9052C84.8014 25.9242 84.8585 25.9242 84.9157 25.9432H85.8879V25.9622ZM83.5814 29.3216C83.5814 29.4544 83.6386 29.5493 83.753 29.6253C83.8673 29.7012 84.0389 29.7391 84.2676 29.7391C84.6107 29.7391 84.8585 29.6822 85.0301 29.5873C85.2017 29.4924 85.2779 29.3595 85.2779 29.2077C85.2779 29.0748 85.2398 28.9989 85.1445 28.942C85.0492 28.885 84.8776 28.8661 84.6489 28.8661H84.1723C84.0008 28.8661 83.8483 28.904 83.753 28.9989C83.6386 29.0559 83.5814 29.1697 83.5814 29.3216ZM83.8483 26.8922C83.8483 27.082 83.8864 27.2148 83.9817 27.3097C84.077 27.4046 84.2104 27.4616 84.382 27.4616C84.7442 27.4616 84.9157 27.2718 84.9157 26.8922C84.9157 26.7024 84.8776 26.5505 84.7823 26.4556C84.687 26.3607 84.5536 26.3038 84.382 26.3038C84.2104 26.3038 84.0579 26.3607 83.9817 26.4556C83.9055 26.5505 83.8483 26.7024 83.8483 26.8922Z" fill="white"/>
<path d="M87.0141 27.3289L87.3572 26.8924L88.2341 25.9624H88.9394L87.7575 27.2151L88.9965 28.8663H88.2722L87.3382 27.5946L86.9951 27.8793V28.8663H86.3851V24.7856H86.9951V26.7785L87.0141 27.3289Z" fill="white"/>
<path d="M91.3399 28.8662L91.2255 28.4676H91.2064C91.073 28.6384 90.9205 28.7713 90.7871 28.8282C90.6536 28.8852 90.463 28.9231 90.2343 28.9231C89.9484 28.9231 89.7196 28.8472 89.5671 28.6954C89.4146 28.5435 89.3193 28.3158 89.3193 28.0501C89.3193 27.7464 89.4337 27.5186 89.6624 27.3668C89.8912 27.2149 90.2343 27.139 90.6918 27.12L91.1874 27.1011V26.9492C91.1874 26.7594 91.1492 26.6266 91.0539 26.5317C90.9586 26.4368 90.8252 26.3988 90.6536 26.3988C90.5011 26.3988 90.3677 26.4178 90.2152 26.4557C90.0818 26.4937 89.9483 26.5506 89.8149 26.6076L89.6052 26.1711C89.7577 26.0951 89.9293 26.0192 90.1199 25.9813C90.3105 25.9433 90.4821 25.9243 90.6536 25.9243C91.0158 25.9243 91.3017 26.0002 91.4924 26.1711C91.683 26.3229 91.7783 26.5886 91.7783 26.9302V28.8852H91.3399V28.8662ZM90.4058 28.4486C90.6346 28.4486 90.8061 28.3917 90.9396 28.2588C91.073 28.126 91.1492 27.9552 91.1492 27.7274V27.4807L90.768 27.4996C90.4821 27.5186 90.2724 27.5566 90.139 27.6515C90.0055 27.7464 89.9484 27.8792 89.9484 28.0501C89.9484 28.1829 89.9865 28.2778 90.0627 28.3537C90.139 28.4107 90.2533 28.4486 90.4058 28.4486Z" fill="white"/>
<path d="M94.6959 28.8661L94.6006 28.4865H94.5816C94.4863 28.6193 94.3719 28.7332 94.2194 28.8091C94.0669 28.885 93.8763 28.923 93.6666 28.923C93.3044 28.923 93.0566 28.8281 92.8851 28.6573C92.7135 28.4865 92.6182 28.2208 92.6182 27.8601V25.9622H93.2472V27.7463C93.2472 27.974 93.2854 28.1259 93.3807 28.2397C93.476 28.3536 93.6094 28.4106 93.8191 28.4106C94.086 28.4106 94.2766 28.3346 94.391 28.1828C94.5053 28.031 94.5816 27.7652 94.5816 27.4046V25.9622H95.2106V28.8661H94.6959Z" fill="white"/>
<path d="M97.535 28.8661V25.0322H98.164V28.8661H97.535Z" fill="white"/>
<path d="M101.689 28.8661H101.06V27.082C101.06 26.8543 101.022 26.6834 100.927 26.5885C100.831 26.4747 100.698 26.4177 100.488 26.4177C100.221 26.4177 100.031 26.4936 99.9165 26.6455C99.8021 26.7973 99.7258 27.063 99.7258 27.4237V28.8661H99.1159V25.9622H99.5924L99.6877 26.3418H99.7258C99.8212 26.209 99.9355 26.0951 100.107 26.0192C100.26 25.9432 100.45 25.9053 100.641 25.9053C101.346 25.9053 101.689 26.2659 101.689 26.9681V28.8661Z" fill="white"/>
<path d="M103.523 28.9229C103.161 28.9229 102.875 28.7901 102.665 28.5244C102.455 28.2586 102.36 27.898 102.36 27.4235C102.36 26.949 102.455 26.5694 102.665 26.3037C102.875 26.038 103.161 25.9051 103.523 25.9051C103.904 25.9051 104.19 26.038 104.4 26.3227H104.438C104.4 26.1139 104.4 25.9431 104.4 25.8292V24.7664H105.029V28.847H104.552L104.438 28.4674H104.4C104.209 28.7711 103.923 28.9229 103.523 28.9229ZM103.694 28.4105C103.942 28.4105 104.133 28.3346 104.247 28.2017C104.361 28.0499 104.419 27.8221 104.419 27.4994V27.4235C104.419 27.0629 104.361 26.7972 104.247 26.6454C104.133 26.4935 103.942 26.4176 103.694 26.4176C103.485 26.4176 103.313 26.5125 103.199 26.6833C103.084 26.8541 103.027 27.1009 103.027 27.4425C103.027 27.7652 103.084 28.0119 103.199 28.1827C103.294 28.3346 103.466 28.4105 103.694 28.4105Z" fill="white"/>
<path d="M108.495 27.4046C108.495 27.8791 108.38 28.2397 108.132 28.5054C107.885 28.7712 107.542 28.904 107.103 28.904C106.836 28.904 106.588 28.8471 106.379 28.7142C106.169 28.6003 106.017 28.4105 105.902 28.1828C105.788 27.955 105.731 27.6893 105.731 27.3856C105.731 26.9111 105.845 26.5505 106.093 26.2848C106.341 26.0191 106.684 25.8862 107.122 25.8862C107.542 25.8862 107.885 26.0191 108.132 26.2848C108.38 26.5505 108.495 26.9491 108.495 27.4046ZM106.379 27.4046C106.379 28.0689 106.627 28.4105 107.122 28.4105C107.618 28.4105 107.866 28.0689 107.866 27.4046C107.866 26.7403 107.618 26.4177 107.122 26.4177C106.855 26.4177 106.665 26.5126 106.55 26.6834C106.436 26.8542 106.379 27.082 106.379 27.4046Z" fill="white"/>
<path d="M111.775 28.8661H111.146V27.082C111.146 26.8543 111.108 26.6834 111.012 26.5885C110.917 26.4747 110.784 26.4177 110.574 26.4177C110.307 26.4177 110.116 26.4936 110.002 26.6455C109.888 26.7973 109.811 27.063 109.811 27.4237V28.8661H109.201V25.9622H109.678L109.773 26.3418H109.811C109.907 26.209 110.021 26.0951 110.193 26.0192C110.345 25.9432 110.536 25.9053 110.726 25.9053C111.432 25.9053 111.775 26.2659 111.775 26.9681V28.8661Z" fill="white"/>
<path d="M113.909 28.9231C113.452 28.9231 113.108 28.7903 112.842 28.5245C112.575 28.2588 112.46 27.8982 112.46 27.4427C112.46 26.9682 112.575 26.5886 112.823 26.3229C113.051 26.0572 113.394 25.9243 113.795 25.9243C114.176 25.9243 114.481 26.0382 114.71 26.266C114.938 26.4937 115.053 26.8164 115.053 27.2339V27.5756H113.108C113.108 27.8603 113.185 28.069 113.337 28.2209C113.49 28.3727 113.68 28.4486 113.947 28.4486C114.119 28.4486 114.271 28.4297 114.424 28.3917C114.576 28.3537 114.729 28.2968 114.9 28.2209V28.7143C114.748 28.7903 114.595 28.8282 114.443 28.8662C114.29 28.9041 114.1 28.9231 113.909 28.9231ZM113.795 26.3798C113.604 26.3798 113.433 26.4368 113.318 26.5696C113.204 26.7025 113.128 26.8733 113.108 27.12H114.424C114.424 26.8733 114.367 26.7025 114.252 26.5696C114.138 26.4368 113.985 26.3798 113.795 26.3798Z" fill="white"/>
<path d="M117.702 28.031C117.702 28.3157 117.607 28.5245 117.397 28.6763C117.188 28.8282 116.902 28.9041 116.501 28.9041C116.12 28.9041 115.796 28.8471 115.567 28.7333V28.2018C115.91 28.3537 116.234 28.4296 116.52 28.4296C116.902 28.4296 117.092 28.3157 117.092 28.088C117.092 28.012 117.073 27.9551 117.035 27.8982C116.997 27.8412 116.921 27.8033 116.825 27.7463C116.73 27.6894 116.597 27.6324 116.425 27.5755C116.082 27.4426 115.853 27.3098 115.739 27.1959C115.624 27.063 115.567 26.8922 115.567 26.6834C115.567 26.4367 115.663 26.2469 115.872 26.1141C116.082 25.9812 116.349 25.9053 116.692 25.9053C117.035 25.9053 117.359 25.9812 117.664 26.1141L117.454 26.5696C117.13 26.4367 116.883 26.3798 116.654 26.3798C116.33 26.3798 116.158 26.4747 116.158 26.6645C116.158 26.7594 116.196 26.8353 116.292 26.8922C116.368 26.9492 116.558 27.0441 116.844 27.1579C117.092 27.2528 117.264 27.3288 117.378 27.4047C117.493 27.4806 117.569 27.5755 117.626 27.6704C117.683 27.7653 117.702 27.8982 117.702 28.031Z" fill="white"/>
<path d="M118.331 25.1839C118.331 25.07 118.369 24.9941 118.426 24.9372C118.484 24.8802 118.579 24.8423 118.693 24.8423C118.808 24.8423 118.884 24.8802 118.941 24.9372C118.998 24.9941 119.036 25.089 119.036 25.1839C119.036 25.2978 118.998 25.3737 118.941 25.4307C118.884 25.4876 118.789 25.5256 118.693 25.5256C118.579 25.5256 118.503 25.4876 118.426 25.4307C118.369 25.3737 118.331 25.2978 118.331 25.1839ZM118.998 28.866H118.388V25.9621H118.998V28.866Z" fill="white"/>
<path d="M121.705 28.8662L121.591 28.4676H121.571C121.438 28.6384 121.286 28.7713 121.152 28.8282C121.019 28.8852 120.828 28.9231 120.599 28.9231C120.313 28.9231 120.085 28.8472 119.932 28.6954C119.78 28.5435 119.684 28.3158 119.684 28.0501C119.684 27.7464 119.799 27.5186 120.027 27.3668C120.256 27.2149 120.599 27.139 121.057 27.12L121.552 27.1011V26.9492C121.552 26.7594 121.514 26.6266 121.419 26.5317C121.324 26.4368 121.19 26.3988 121.019 26.3988C120.866 26.3988 120.733 26.4178 120.58 26.4557C120.447 26.4937 120.313 26.5506 120.18 26.6076L119.97 26.1711C120.123 26.0951 120.294 26.0192 120.485 25.9813C120.676 25.9433 120.847 25.9243 121.019 25.9243C121.381 25.9243 121.667 26.0002 121.857 26.1711C122.048 26.3229 122.143 26.5886 122.143 26.9302V28.8852H121.705V28.8662ZM120.771 28.4486C121 28.4486 121.171 28.3917 121.305 28.2588C121.438 28.126 121.514 27.9552 121.514 27.7274V27.4807L121.133 27.4996C120.847 27.5186 120.637 27.5566 120.504 27.6515C120.371 27.7464 120.313 27.8792 120.313 28.0501C120.313 28.1829 120.352 28.2778 120.428 28.3537C120.504 28.4107 120.618 28.4486 120.771 28.4486Z" fill="white"/>
<path fill-rule="evenodd" clip-rule="evenodd" d="M95.7866 16.4548H90.708C90.708 18.1446 90.6523 20.1685 91.2558 21.2919C91.3321 21.4566 91.4442 21.602 91.584 21.7177C91.7237 21.8333 91.8876 21.9163 92.0636 21.9604C92.1876 22.0042 92.3149 22.0384 92.4442 22.0625C92.8247 22.0304 93.192 21.9073 93.5151 21.7038C93.8382 21.5002 94.1078 21.2221 94.3011 20.8927C94.7294 20.2742 95.07 19.5993 95.3131 18.8873C95.4152 19.0359 95.6102 19.1194 95.6194 19.2865C95.5871 19.4282 95.5306 19.5633 95.4523 19.6858C94.7096 21.3198 93.8461 23.1117 91.5808 23.1117C90.6448 23.1316 89.7315 22.8228 88.9997 22.2389C87.7021 20.9974 86.9282 19.3068 86.8365 17.5132C86.5757 15.4624 86.7722 13.3793 87.4121 11.4134C87.9877 9.81653 88.9069 8.18249 90.9866 8.04323C91.4305 8.01061 91.8763 8.07143 92.2953 8.22175C92.7143 8.37207 93.0971 8.60856 93.4191 8.91595C93.993 9.47147 94.4479 10.138 94.756 10.8749C95.4993 12.6384 95.8509 14.5422 95.7866 16.4548ZM92.0728 10.1693C92.0728 9.59371 91.98 8.94381 91.6086 8.7674C90.9309 8.44245 90.8009 9.52872 90.7545 10.1136C90.6152 11.8869 90.7545 14.0687 90.7545 15.7492H92.1193C91.9986 13.9945 92.1193 12.0355 92.0636 10.1786L92.0728 10.1693Z" fill="white"/>
<path fill-rule="evenodd" clip-rule="evenodd" d="M28.9015 8.29395V11.1999C29.4307 9.92798 29.9506 8.21039 31.7703 8.41464C32.0755 8.45385 32.361 8.58686 32.5873 8.7953C33.785 9.92798 33.915 13.4375 32.7266 14.6444C32.5907 14.7765 32.4291 14.8793 32.2518 14.9464C32.0745 15.0135 31.8854 15.0434 31.696 15.0344C31.4673 15.005 31.247 14.9288 31.0489 14.8106C30.8509 14.6924 30.6792 14.5347 30.5448 14.3473C30.0684 13.5946 29.8411 12.7111 29.8949 11.822C29.9115 11.539 29.9425 11.257 29.9877 10.9771C29.9877 10.7264 30.0991 10.3922 29.8577 10.2529C29.5235 10.4479 29.4399 10.8936 29.3564 11.2835C29.1134 12.712 29.0232 14.1624 29.0871 15.61V21.7376H30.2198V22.4061H24.3336V21.7376H25.132V9.34307H24.315V8.63746C25.8562 8.52605 27.3695 8.39607 28.9015 8.29395Z" fill="white"/>
<path fill-rule="evenodd" clip-rule="evenodd" d="M38.8081 8.29395C38.8916 12.704 38.8081 17.2626 38.8081 21.7376H39.7365V22.4061H34.1659V21.7376H34.9644C35.0108 17.6525 34.9644 13.4839 34.9644 9.36164H34.0731V8.6189C35.7721 8.62818 37.2483 8.42393 38.8081 8.29395Z" fill="white"/>
<path fill-rule="evenodd" clip-rule="evenodd" d="M57.0985 9.38009H56.235V8.63735C57.8691 8.63735 59.2617 8.35882 60.8772 8.34953V21.7561H61.8056V22.4245C60.2841 22.46 58.767 22.6027 57.2656 22.8516V20.1313C56.6621 21.3569 56.0865 22.6938 54.4803 22.8331C52.6791 23.0002 52.1592 21.5704 51.89 20.0478C51.6673 18.3149 51.5928 16.5662 51.6672 14.8207V9.38009H50.878V8.63735C52.3805 8.60794 53.8805 8.49948 55.3716 8.3124C55.483 8.3124 55.5294 8.21955 55.548 8.44238C55.6223 9.37081 55.548 10.5778 55.548 11.4598V19.5371C55.548 20.1777 55.548 21.0226 56.2536 20.8741C56.9592 20.7255 57.0242 19.3143 57.0613 18.5994C57.1263 17.4946 57.0613 16.4176 57.0613 15.5263L57.0985 9.38009Z" fill="white"/>
<path fill-rule="evenodd" clip-rule="evenodd" d="M72.4173 21.756H73.2807V22.4245H68.0722V21.756H68.5922V11.4133C68.5922 10.9491 68.4715 10.392 68.0908 10.3549C67.7102 10.3178 67.4502 10.8191 67.3481 11.1626C67.0685 12.6274 66.978 14.122 67.0788 15.6098V21.8025H67.6545V22.4709H62.4088V21.8025H63.198V9.38006H62.4088V8.63731C64.0336 8.63731 65.4262 8.3495 67.051 8.3495V10.9677C67.543 9.77928 68.1001 8.51662 69.4835 8.27522C70.0263 8.18328 70.5841 8.29219 71.0525 8.58161C71.7505 9.21721 72.1734 10.0997 72.2316 11.0419C72.3862 12.1957 72.4483 13.3599 72.4173 14.5236V21.756Z" fill="white"/>
<path fill-rule="evenodd" clip-rule="evenodd" d="M96.4643 8.40503H101.663V9.15706H101.144C101.784 12.3416 102.453 15.489 103.121 18.6363C103.335 17.6151 103.548 16.5938 103.752 15.5447C103.798 15.4058 103.829 15.2627 103.845 15.1176C103.811 14.8664 103.759 14.6181 103.687 14.3748C103.335 12.648 103 10.8654 102.657 9.15706H101.97V8.40503H107.364V9.15706H106.436C107.048 12.2302 107.689 15.2847 108.292 18.3485C108.71 16.4081 109.156 14.1892 109.574 12.1188C109.763 11.3886 109.848 10.6352 109.824 9.88123C109.824 9.43559 109.657 9.09207 109.109 9.15706V8.40503H111.561V9.15706C111.435 9.16314 111.312 9.19473 111.198 9.2499C110.4 9.65841 110.27 11.2275 110.019 12.2302C109.332 15.6746 108.636 19.2491 107.949 22.6007H105.349C104.904 20.5303 104.477 18.4507 104.05 16.3617C103.585 18.4135 103.177 20.5303 102.74 22.6007H99.9552C99.0267 18.1071 98.0983 13.6507 97.1699 9.15706H96.39V8.46074C96.39 8.46074 96.4457 8.40503 96.4643 8.40503Z" fill="white"/>
<path fill-rule="evenodd" clip-rule="evenodd" d="M125.932 15.9349V16.9747C125.852 16.9617 125.775 16.9299 125.709 16.8819C125.473 16.728 125.2 16.6393 124.918 16.6246C124.636 16.6099 124.355 16.6699 124.103 16.7983C122.859 17.6339 122.841 21.3569 124.735 21.3755C125.163 21.3566 125.578 21.2183 125.932 20.9763V22.0068C125.533 22.2394 125.076 22.3517 124.615 22.3303C124.153 22.3089 123.708 22.1547 123.333 21.8861C122.107 20.8092 122.154 17.5782 123.24 16.3156C123.561 15.9342 124.01 15.6833 124.503 15.6099C125 15.5809 125.496 15.6936 125.932 15.9349Z" fill="white"/>
<path fill-rule="evenodd" clip-rule="evenodd" d="M128.403 15.7489C128.697 15.73 128.992 15.7776 129.266 15.8882C131.123 16.7331 131.021 21.4588 129.173 22.3315C128.869 22.4581 128.537 22.5016 128.211 22.4575C127.884 22.4135 127.576 22.2835 127.316 22.0808C126.184 21.1524 126.146 17.8936 127.047 16.5752C127.193 16.3416 127.392 16.1453 127.627 16.0019C127.862 15.8585 128.128 15.7719 128.403 15.7489ZM128.022 16.798C126.88 17.3922 126.815 21.0317 128.133 21.4402C128.373 21.5053 128.627 21.5053 128.867 21.4402C129.869 21.0317 130.083 18.3857 129.452 17.2715C129.342 17.0666 129.172 16.9009 128.964 16.7977C128.756 16.6945 128.52 16.6589 128.291 16.6959C128.197 16.7158 128.106 16.7502 128.022 16.798Z" fill="white"/>
<path fill-rule="evenodd" clip-rule="evenodd" d="M134.483 17.1234C134.634 16.7049 134.861 16.3178 135.152 15.9814C135.366 15.8043 135.642 15.7195 135.919 15.7456C136.196 15.7717 136.451 15.9066 136.628 16.1207C136.671 16.1719 136.709 16.228 136.739 16.2878C136.986 17.2481 137.059 18.245 136.953 19.2309V22.369H136.025V17.829C136.025 17.3741 136.025 16.687 135.662 16.6685C135.3 16.6499 135.143 17.1048 135.031 17.3184C134.958 17.4602 134.893 17.6059 134.836 17.7547C134.75 17.8878 134.681 18.0313 134.632 18.1818C134.604 18.531 134.604 18.8818 134.632 19.2309V22.369H133.703V17.829C133.703 17.3555 133.703 16.687 133.36 16.6685C133.016 16.6499 132.673 17.4391 132.534 17.7547C132.45 17.8879 132.385 18.0315 132.339 18.1818C132.311 18.531 132.311 18.8818 132.339 19.2309V22.369H131.41V15.87H132.199C132.223 16.2689 132.223 16.6688 132.199 17.0677C132.534 16.5478 132.682 15.7957 133.443 15.7493C134.205 15.7029 134.474 16.2971 134.483 17.1234Z" fill="white"/>
<path fill-rule="evenodd" clip-rule="evenodd" d="M120.696 19.7414C122.023 19.4907 122.126 21.9325 121.076 22.2018C120.399 22.3874 119.972 21.719 119.916 21.1805C119.888 20.9566 119.908 20.7294 119.974 20.5135C120.039 20.2976 120.149 20.0979 120.297 19.9271C120.413 19.8341 120.55 19.7704 120.696 19.7414Z" fill="white"/>
</svg>
